<svg width="19" height="22" viewBox="0 0 19 22" fill="none" xmlns="http://www.w3.org/2000/svg">
<path d="M13.4512 0H13.6077C13.7332 1.55149 13.1411 2.71075 12.4213 3.55026C11.7152 4.38396 10.7481 5.19255 9.18409 5.06986C9.07975 3.5406 9.67291 2.46731 10.3917 1.62974C11.0582 0.849163 12.2803 0.154569 13.4512 0ZM18.1858 16.1486V16.1921C17.7462 17.5233 17.1193 18.6642 16.3542 19.723C15.6557 20.6842 14.7998 21.9778 13.2715 21.9778C11.9509 21.9778 11.0737 21.1286 9.72025 21.1054C8.28855 21.0822 7.50122 21.8155 6.19221 22H5.74589C4.78467 21.8609 4.00892 21.0996 3.44378 20.4137C1.77733 18.3869 0.489582 15.7689 0.25 12.4187V11.4342C0.351436 9.03649 1.5165 7.08699 3.06509 6.14219C3.88237 5.63984 5.00589 5.21187 6.25694 5.40315C6.7931 5.48623 7.34085 5.66978 7.82098 5.8514C8.276 6.02626 8.845 6.33636 9.38406 6.31994C9.74923 6.30931 10.1125 6.119 10.4805 5.98472C11.5587 5.5954 12.6155 5.14908 14.0086 5.35871C15.6827 5.61182 16.871 6.35568 17.6052 7.50336C16.189 8.40469 15.0693 9.76297 15.2606 12.0825C15.4306 14.1894 16.6556 15.4221 18.1858 16.1486Z" fill="black"/>
</svg>
