<svg width="24" height="24" viewBox="0 0 24 24" fill="none" xmlns="http://www.w3.org/2000/svg">
<path d="M5.75321 5.00006H5.75169C5.66785 4.99988 5.58481 5.01631 5.50735 5.0484C5.4299 5.08049 5.35956 5.12761 5.30042 5.18703C5.24012 5.24688 5.19231 5.31811 5.15976 5.39659C5.12722 5.47507 5.11059 5.55923 5.11084 5.64418V15.3027C5.11084 15.6569 5.40012 15.9457 5.75575 15.9466C7.25503 15.9502 9.76692 16.2627 11.4998 18.0761V7.96819C11.4998 7.84813 11.4691 7.73534 11.4112 7.64201C9.98898 5.35158 7.25588 5.00358 5.75321 5.00006ZM18.8887 15.3027V5.64412C18.8887 5.47127 18.8214 5.30891 18.6991 5.18697C18.64 5.12756 18.5697 5.08046 18.4922 5.04837C18.4148 5.01628 18.3317 4.99984 18.2479 5H18.2463C16.7437 5.00358 14.0106 5.35158 12.5883 7.64201C12.5304 7.73534 12.4998 7.84813 12.4998 7.96819V18.076C14.2327 16.2626 16.7446 15.9501 18.2439 15.9466C18.5994 15.9457 18.8887 15.6568 18.8887 15.3027Z" fill="#B6020B"/>
<path d="M20.356 7.22751H19.889V15.3027C19.889 16.207 19.1522 16.9444 18.2465 16.9467C16.9748 16.9497 14.8779 17.1984 13.3929 18.6039C15.9613 17.975 18.6688 18.3838 20.2118 18.7355C20.3063 18.7573 20.4046 18.7574 20.4991 18.7358C20.5937 18.7143 20.6822 18.6716 20.7579 18.611C20.8336 18.5508 20.8948 18.4743 20.9367 18.3872C20.9786 18.3001 21.0002 18.2046 21 18.1079V7.87151C21.0001 7.51642 20.7111 7.22751 20.356 7.22751ZM4.11103 15.3027V7.22751H3.644C3.28897 7.22751 3 7.51642 3 7.87151V18.1077C3 18.3047 3.08824 18.4881 3.24206 18.6108C3.31778 18.6715 3.40625 18.7142 3.50084 18.7357C3.59542 18.7573 3.69366 18.7571 3.78818 18.7353C5.33122 18.3836 8.0388 17.9749 10.6071 18.6037C9.12208 17.1983 7.02523 16.9497 5.75352 16.9466C4.84788 16.9444 4.11103 16.207 4.11103 15.3027Z" fill="#B6020B"/>
</svg>
