<svg width="12" height="21" viewBox="0 0 12 21" fill="none" xmlns="http://www.w3.org/2000/svg">
<path d="M3.54589 11.4046C3.46661 11.4046 1.80338 11.4051 1.03628 11.4043C0.641369 11.4041 0.500473 11.2622 0.500473 10.8647C0.499842 9.84387 0.499842 8.82301 0.500473 7.80215C0.500726 7.40976 0.649702 7.26003 1.03956 7.25977C1.80666 7.25927 3.4608 7.25952 3.54589 7.25952V5.037C3.5464 4.03356 3.72542 3.07305 4.23522 2.19359C4.75714 1.29342 5.51666 0.676813 6.49006 0.320281C7.11348 0.0917679 7.76064 0.000615032 8.42219 0.000110029C9.24989 -0.000394973 10.0776 0.000362523 10.9055 0.00187753C11.2613 0.00238253 11.4191 0.159691 11.4199 0.51799C11.4214 1.47825 11.4214 2.43851 11.4199 3.39852C11.4194 3.76061 11.2681 3.90605 10.9043 3.91009C10.2258 3.91741 9.54684 3.91287 8.86912 3.94014C8.18459 3.94014 7.82452 4.27445 7.82452 4.98297C7.80811 5.73239 7.81771 6.48257 7.81771 7.25927C7.88184 7.25927 9.82989 7.25902 10.7404 7.25927C11.154 7.25927 11.2954 7.40143 11.2954 7.8173C11.2954 8.8326 11.2952 9.84816 11.2944 10.8635C11.2941 11.2733 11.1613 11.4041 10.7452 11.4043C9.83469 11.4048 7.89421 11.4046 7.80937 11.4046V19.6222C7.80937 20.0603 7.67151 20.2 7.23923 20.2H4.07715C3.69512 20.2 3.54614 20.0515 3.54614 19.6695L3.54589 11.4046Z" fill="#3D6AD6"/>
</svg>
