<svg width="24" height="24" viewBox="0 0 24 24" fill="none" xmlns="http://www.w3.org/2000/svg">
<path d="M12.1843 19.9205L12.1781 19.9178L12.1586 19.9071C12.0441 19.8442 11.9306 19.7796 11.8181 19.7134C10.465 18.9093 9.2005 17.9648 8.04556 16.8955C6.00017 14.987 3.83301 12.1549 3.83301 8.66685C3.83301 6.06412 6.02329 4.00006 8.66691 4.00006C9.40182 3.99646 10.1281 4.15859 10.7917 4.47439C11.4553 4.79019 12.0392 5.25153 12.4999 5.82411C12.9607 5.25142 13.5447 4.79 14.2085 4.4742C14.8723 4.15839 15.5987 3.99633 16.3338 4.00006C18.9765 4.00006 21.1668 6.06412 21.1668 8.66685C21.1668 12.1558 18.9996 14.9879 16.9542 16.8946C15.7993 17.964 14.5348 18.9085 13.1817 19.7125C13.0692 19.779 12.9557 19.8439 12.8412 19.9071L12.8217 19.9178L12.8155 19.9214L12.8128 19.9222C12.7164 19.9733 12.609 20 12.4999 20C12.3908 20 12.2834 19.9733 12.187 19.9222L12.1843 19.9205Z" fill="#B6020B"/>
</svg>
