<svg width="25" height="18" viewBox="0 0 25 18" fill="none" xmlns="http://www.w3.org/2000/svg">
<path d="M1.88636 18.0022H5.70456V8.72948L3.20434 4.36364L0.25 4.63856V16.3658C0.25 17.2699 0.982281 18.0022 1.88636 18.0022Z" fill="#0085F7"/>
<path d="M18.7954 18.0022H22.6136C23.5177 18.0022 24.25 17.2699 24.25 16.3658V4.63856L21.2999 4.36364L18.7955 8.72948V18.0022H18.7954Z" fill="#00A94B"/>
<path d="M18.7956 1.63856L16.5527 5.91839L18.7956 8.72948L24.2501 4.63856V2.45676C24.2501 0.434483 21.9415 -0.720517 20.3228 0.493124L18.7956 1.63856Z" fill="#FFBC00"/>
<path fill-rule="evenodd" clip-rule="evenodd" d="M5.70455 8.72948L3.56738 4.21495L5.70455 1.63856L12.25 6.54764L18.7954 1.63856V8.72948L12.25 13.6386L5.70455 8.72948Z" fill="#FF4131"/>
<path d="M0.25 2.45676V4.63856L5.70456 8.72948V1.63856L4.17728 0.493124C2.55864 -0.720517 0.25 0.434483 0.25 2.45676Z" fill="#E51C19"/>
</svg>
