<svg width="25" height="24" viewBox="0 0 25 24" fill="none" xmlns="http://www.w3.org/2000/svg">
<path d="M21.9953 10.2612L13.8375 10.2608C13.4773 10.2608 13.1853 10.5528 13.1853 10.913V13.519C13.1853 13.8792 13.4773 14.1712 13.8375 14.1712H18.4315C17.9284 15.4767 16.9895 16.57 15.7916 17.2647L17.7505 20.6557C20.8927 18.8384 22.7505 15.6498 22.7505 12.0803C22.7505 11.5721 22.713 11.2088 22.6381 10.7997C22.5811 10.4888 22.3113 10.2612 21.9953 10.2612Z" fill="#167EE6"/>
<path d="M12.7498 18.0869C10.5016 18.0869 8.53895 16.8586 7.48485 15.0409L4.09399 16.9953C5.81958 19.986 9.05215 21.9999 12.7498 21.9999C14.5637 21.9999 16.2753 21.5116 17.7498 20.6604V20.6558L15.7909 17.2648C14.8949 17.7845 13.858 18.0869 12.7498 18.0869Z" fill="#12B347"/>
<path d="M17.75 20.6605V20.6559L15.7911 17.2649C14.8951 17.7845 13.8583 18.087 12.75 18.087V22C14.5639 22 16.2756 21.5117 17.75 20.6605Z" fill="#0F993E"/>
<path d="M6.66304 12C6.66304 10.8918 6.96546 9.85508 7.48503 8.9591L4.09418 7.00465C3.23836 8.47446 2.75 10.1814 2.75 12C2.75 13.8186 3.23836 15.5255 4.09418 16.9953L7.48503 15.0409C6.96546 14.1449 6.66304 13.1082 6.66304 12Z" fill="#FFD500"/>
<path d="M12.7498 5.91304C14.2158 5.91304 15.5625 6.43397 16.6143 7.3005C16.8738 7.51425 17.251 7.49882 17.4887 7.26112L19.3351 5.41464C19.6048 5.14495 19.5856 4.70351 19.2975 4.45359C17.5352 2.92472 15.2423 2 12.7498 2C9.05215 2 5.81958 4.01394 4.09399 7.00464L7.48485 8.95909C8.53895 7.14139 10.5016 5.91304 12.7498 5.91304Z" fill="#FF4B26"/>
<path d="M16.6145 7.3005C16.874 7.51425 17.2512 7.49882 17.4889 7.26112L19.3353 5.41464C19.605 5.14495 19.5858 4.70351 19.2977 4.45359C17.5354 2.92469 15.2425 2 12.75 2V5.91304C14.216 5.91304 15.5627 6.43397 16.6145 7.3005Z" fill="#D93F21"/>
</svg>
