<svg width="24" height="24" viewBox="0 0 24 24" fill="none" xmlns="http://www.w3.org/2000/svg">
<path fill-rule="evenodd" clip-rule="evenodd" d="M4 12.5C4 7.80538 7.80538 4 12.5 4C17.1946 4 21 7.80538 21 12.5C21 17.1946 17.1946 21 12.5 21C7.80538 21 4 17.1946 4 12.5ZM13.9193 9.08518C13.1434 8.40779 11.8566 8.40779 11.0816 9.08518C10.9511 9.1994 10.7805 9.25709 10.6075 9.24557C10.4344 9.23404 10.273 9.15424 10.1588 9.02372C10.0446 8.8932 9.98688 8.72265 9.99841 8.54959C10.0099 8.37653 10.0897 8.21514 10.2203 8.10092C11.4878 6.992 13.5122 6.992 14.7797 8.10092C16.0988 9.25518 16.0988 11.1679 14.7797 12.3222C14.5592 12.5145 14.3137 12.6764 14.0501 12.8034C13.4607 13.0893 13.1538 13.4782 13.1538 13.8077V14.4615C13.1538 14.6349 13.085 14.8013 12.9623 14.9239C12.8397 15.0465 12.6734 15.1154 12.5 15.1154C12.3266 15.1154 12.1603 15.0465 12.0377 14.9239C11.915 14.8013 11.8462 14.6349 11.8462 14.4615V13.8077C11.8462 12.6927 12.7703 11.9708 13.4808 11.6265C13.6394 11.5497 13.7868 11.453 13.9193 11.3379C14.6429 10.7041 14.6429 9.71897 13.9193 9.08518ZM12.5 17.7308C12.6734 17.7308 12.8397 17.6619 12.9623 17.5393C13.085 17.4166 13.1538 17.2503 13.1538 17.0769C13.1538 16.9035 13.085 16.7372 12.9623 16.6146C12.8397 16.492 12.6734 16.4231 12.5 16.4231C12.3266 16.4231 12.1603 16.492 12.0377 16.6146C11.915 16.7372 11.8462 16.9035 11.8462 17.0769C11.8462 17.2503 11.915 17.4166 12.0377 17.5393C12.1603 17.6619 12.3266 17.7308 12.5 17.7308Z" fill="#B6020B"/>
</svg>
