<svg width="22" height="22" viewBox="0 0 22 22" fill="none" xmlns="http://www.w3.org/2000/svg">
<path d="M11 21.5469C16.8249 21.5469 21.5469 16.8249 21.5469 11C21.5469 5.17512 16.8249 0.453125 11 0.453125C5.17512 0.453125 0.453125 5.17512 0.453125 11C0.453125 16.8249 5.17512 21.5469 11 21.5469Z" fill="url(#paint0_linear_438_7689)"/>
<path d="M13.2408 5.14062H8.76426C6.76738 5.14062 5.14551 6.7625 5.14551 8.75937V13.2359C5.14551 15.2328 6.76738 16.8547 8.76426 16.8547H13.2408C15.2377 16.8547 16.8596 15.2328 16.8596 13.2359V8.75937C16.8596 6.7625 15.2377 5.14062 13.2408 5.14062ZM15.5518 13.2406C15.5518 14.5156 14.5158 15.5562 13.2361 15.5562H8.75957C7.48457 15.5562 6.44395 14.5203 6.44395 13.2406V8.76406C6.44395 7.48906 7.47988 6.44844 8.75957 6.44844H13.2361C14.5111 6.44844 15.5518 7.48438 15.5518 8.76406V13.2406Z" fill="white"/>
<path d="M11.0002 8.00469C9.35019 8.00469 8.00488 9.35 8.00488 11C8.00488 12.65 9.35019 13.9953 11.0002 13.9953C12.6502 13.9953 13.9955 12.65 13.9955 11C13.9955 9.35 12.6502 8.00469 11.0002 8.00469ZM11.0002 12.8187C9.99707 12.8187 9.18144 12.0031 9.18144 11C9.18144 9.99688 9.99707 9.18125 11.0002 9.18125C12.0033 9.18125 12.8189 9.99688 12.8189 11C12.8189 12.0031 12.0033 12.8187 11.0002 12.8187Z" fill="white"/>
<path d="M14.2239 8.33307C14.4999 8.28813 14.6872 8.02798 14.6422 7.75203C14.5973 7.47607 14.3371 7.28879 14.0612 7.33374C13.7852 7.37868 13.598 7.63882 13.6429 7.91478C13.6878 8.19074 13.948 8.37801 14.2239 8.33307Z" fill="white"/>
<defs>
<linearGradient id="paint0_linear_438_7689" x1="2.96933" y1="19.0307" x2="17.9576" y2="4.04239" gradientUnits="userSpaceOnUse">
<stop stop-color="#FEE411"/>
<stop offset="0.052" stop-color="#FEDB16"/>
<stop offset="0.138" stop-color="#FEC125"/>
<stop offset="0.248" stop-color="#FE983D"/>
<stop offset="0.376" stop-color="#FE5F5E"/>
<stop offset="0.5" stop-color="#FE2181"/>
<stop offset="1" stop-color="#9000DC"/>
</linearGradient>
</defs>
</svg>
