<svg width="24" height="24" viewBox="0 0 24 24" fill="none" xmlns="http://www.w3.org/2000/svg">
<path d="M15 11.6477L16.1766 14H13.8234L14.3203 13.0078L15 11.6477ZM20 5.25V17.75C20 18.0815 19.8683 18.3995 19.6339 18.6339C19.3995 18.8683 19.0815 19 18.75 19H6.25C5.91848 19 5.60054 18.8683 5.36612 18.6339C5.1317 18.3995 5 18.0815 5 17.75V5.25C5 4.91848 5.1317 4.60054 5.36612 4.36612C5.60054 4.1317 5.91848 4 6.25 4H18.75C19.0815 4 19.3995 4.1317 19.6339 4.36612C19.8683 4.60054 20 4.91848 20 5.25ZM18.6844 16.2203L15.5594 9.97031C15.5075 9.86631 15.4277 9.77881 15.3289 9.71766C15.2301 9.6565 15.1162 9.6241 15 9.6241C14.8838 9.6241 14.7699 9.6565 14.6711 9.71766C14.5723 9.77881 14.4925 9.86631 14.4406 9.97031L13.4109 12.0312C12.7486 11.9015 12.1204 11.6355 11.5664 11.25C12.4299 10.2724 12.9643 9.04796 13.0938 7.75H14.375C14.5408 7.75 14.6997 7.68415 14.8169 7.56694C14.9342 7.44973 15 7.29076 15 7.125C15 6.95924 14.9342 6.80027 14.8169 6.68306C14.6997 6.56585 14.5408 6.5 14.375 6.5H11.25V5.875C11.25 5.70924 11.1842 5.55027 11.0669 5.43306C10.9497 5.31585 10.7908 5.25 10.625 5.25C10.4592 5.25 10.3003 5.31585 10.1831 5.43306C10.0658 5.55027 10 5.70924 10 5.875V6.5H6.875C6.70924 6.5 6.55027 6.56585 6.43306 6.68306C6.31585 6.80027 6.25 6.95924 6.25 7.125C6.25 7.29076 6.31585 7.44973 6.43306 7.56694C6.55027 7.68415 6.70924 7.75 6.875 7.75H11.8344C11.7104 8.73615 11.2941 9.66262 10.6391 10.4102C10.3616 10.0862 10.1254 9.72905 9.93594 9.34688C9.85918 9.20373 9.7297 9.0961 9.57495 9.04677C9.4202 8.99744 9.25232 9.01029 9.10688 9.08261C8.96144 9.15492 8.84987 9.28101 8.79579 9.43417C8.74172 9.58733 8.74939 9.75553 8.81719 9.90312C9.0564 10.3855 9.35565 10.8357 9.70781 11.243C8.87536 11.8185 7.88705 12.1263 6.875 12.125C6.70924 12.125 6.55027 12.1908 6.43306 12.3081C6.31585 12.4253 6.25 12.5842 6.25 12.75C6.25 12.9158 6.31585 13.0747 6.43306 13.1919C6.55027 13.3092 6.70924 13.375 6.875 13.375C8.23182 13.3764 9.55185 12.9339 10.6336 12.1148C11.2881 12.6151 12.0369 12.9781 12.8352 13.182L11.3156 16.2203C11.2414 16.3687 11.2292 16.5404 11.2817 16.6978C11.3341 16.8551 11.447 16.9852 11.5953 17.0594C11.7437 17.1336 11.9154 17.1458 12.0728 17.0933C12.2301 17.0409 12.3602 16.928 12.4344 16.7797L13.1984 15.25H16.8016L17.5656 16.7797C17.6024 16.8531 17.6532 16.9186 17.7152 16.9725C17.7773 17.0263 17.8493 17.0673 17.9272 17.0933C18.0051 17.1193 18.0874 17.1296 18.1693 17.1238C18.2513 17.118 18.3312 17.0961 18.4047 17.0594C18.4781 17.0226 18.5436 16.9718 18.5975 16.9098C18.6513 16.8477 18.6923 16.7757 18.7183 16.6978C18.7443 16.6199 18.7546 16.5376 18.7488 16.4557C18.743 16.3737 18.7211 16.2938 18.6844 16.2203Z" fill="#B6020B"/>
</svg>
