<svg width="32" height="32" viewBox="0 0 32 32" fill="none" xmlns="http://www.w3.org/2000/svg">
<rect width="32" height="32" rx="8" fill="white"/>
<rect x="0.5" y="0.5" width="31" height="31" rx="7.5" stroke="#B6020B" stroke-opacity="0.02"/>
<path d="M11.0025 13.7031V8.625C11.0025 8.45924 10.9366 8.30027 10.8194 8.18306C10.7022 8.06585 10.5432 8 10.3775 8C10.2117 8 10.0527 8.06585 9.93552 8.18306C9.81831 8.30027 9.75246 8.45924 9.75246 8.625V13.7031C9.2147 13.8408 8.73806 14.1536 8.39769 14.5921C8.05731 15.0306 7.87256 15.5699 7.87256 16.125C7.87256 16.6801 8.05731 17.2194 8.39769 17.6579C8.73806 18.0964 9.2147 18.4092 9.75246 18.5469V22.375C9.75246 22.5408 9.81831 22.6997 9.93552 22.8169C10.0527 22.9342 10.2117 23 10.3775 23C10.5432 23 10.7022 22.9342 10.8194 22.8169C10.9366 22.6997 11.0025 22.5408 11.0025 22.375V18.5469C11.5402 18.4092 12.0169 18.0964 12.3572 17.6579C12.6976 17.2194 12.8824 16.6801 12.8824 16.125C12.8824 15.5699 12.6976 15.0306 12.3572 14.5921C12.0169 14.1536 11.5402 13.8408 11.0025 13.7031ZM10.3775 17.375C10.1302 17.375 9.88856 17.3017 9.683 17.1643C9.47744 17.027 9.31722 16.8318 9.22261 16.6034C9.128 16.3749 9.10325 16.1236 9.15148 15.8811C9.19971 15.6387 9.31876 15.4159 9.49358 15.2411C9.66839 15.0663 9.89112 14.9472 10.1336 14.899C10.3761 14.8508 10.6274 14.8755 10.8558 14.9702C11.0842 15.0648 11.2794 15.225 11.4168 15.4305C11.5541 15.6361 11.6275 15.8778 11.6275 16.125C11.6275 16.4565 11.4958 16.7745 11.2613 17.0089C11.0269 17.2433 10.709 17.375 10.3775 17.375ZM16.6275 9.95312V8.625C16.6275 8.45924 16.5616 8.30027 16.4444 8.18306C16.3272 8.06585 16.1682 8 16.0025 8C15.8367 8 15.6777 8.06585 15.5605 8.18306C15.4433 8.30027 15.3775 8.45924 15.3775 8.625V9.95312C14.8397 10.0908 14.3631 10.4036 14.0227 10.8421C13.6823 11.2806 13.4976 11.8199 13.4976 12.375C13.4976 12.9301 13.6823 13.4694 14.0227 13.9079C14.3631 14.3464 14.8397 14.6592 15.3775 14.7969V22.375C15.3775 22.5408 15.4433 22.6997 15.5605 22.8169C15.6777 22.9342 15.8367 23 16.0025 23C16.1682 23 16.3272 22.9342 16.4444 22.8169C16.5616 22.6997 16.6275 22.5408 16.6275 22.375V14.7969C17.1652 14.6592 17.6419 14.3464 17.9822 13.9079C18.3226 13.4694 18.5074 12.9301 18.5074 12.375C18.5074 11.8199 18.3226 11.2806 17.9822 10.8421C17.6419 10.4036 17.1652 10.0908 16.6275 9.95312ZM16.0025 13.625C15.7552 13.625 15.5136 13.5517 15.308 13.4143C15.1024 13.277 14.9422 13.0818 14.8476 12.8534C14.753 12.6249 14.7282 12.3736 14.7765 12.1311C14.8247 11.8887 14.9438 11.6659 15.1186 11.4911C15.2934 11.3163 15.5161 11.1972 15.7586 11.149C16.0011 11.1008 16.2524 11.1255 16.4808 11.2202C16.7092 11.3148 16.9044 11.475 17.0418 11.6805C17.1791 11.8861 17.2525 12.1278 17.2525 12.375C17.2525 12.7065 17.1208 13.0245 16.8863 13.2589C16.6519 13.4933 16.334 13.625 16.0025 13.625ZM24.1275 18.625C24.1269 18.0707 23.9426 17.5323 23.6033 17.0941C23.264 16.6558 22.7889 16.3425 22.2525 16.2031V8.625C22.2525 8.45924 22.1866 8.30027 22.0694 8.18306C21.9522 8.06585 21.7932 8 21.6275 8C21.4617 8 21.3027 8.06585 21.1855 8.18306C21.0683 8.30027 21.0025 8.45924 21.0025 8.625V16.2031C20.4647 16.3408 19.9881 16.6536 19.6477 17.0921C19.3073 17.5306 19.1226 18.0699 19.1226 18.625C19.1226 19.1801 19.3073 19.7194 19.6477 20.1579C19.9881 20.5964 20.4647 20.9092 21.0025 21.0469V22.375C21.0025 22.5408 21.0683 22.6997 21.1855 22.8169C21.3027 22.9342 21.4617 23 21.6275 23C21.7932 23 21.9522 22.9342 22.0694 22.8169C22.1866 22.6997 22.2525 22.5408 22.2525 22.375V21.0469C22.7889 20.9075 23.264 20.5942 23.6033 20.1559C23.9426 19.7177 24.1269 19.1793 24.1275 18.625ZM21.6275 19.875C21.3802 19.875 21.1386 19.8017 20.933 19.6643C20.7274 19.527 20.5672 19.3318 20.4726 19.1034C20.378 18.8749 20.3532 18.6236 20.4015 18.3811C20.4497 18.1387 20.5688 17.9159 20.7436 17.7411C20.9184 17.5663 21.1411 17.4472 21.3836 17.399C21.6261 17.3508 21.8774 17.3755 22.1058 17.4701C22.3342 17.5648 22.5294 17.725 22.6668 17.9305C22.8041 18.1361 22.8775 18.3778 22.8775 18.625C22.8775 18.9565 22.7458 19.2745 22.5113 19.5089C22.2769 19.7433 21.959 19.875 21.6275 19.875Z" fill="#B6020B"/>
</svg>
