<svg width="24" height="24" viewBox="0 0 24 24" fill="none" xmlns="http://www.w3.org/2000/svg">
<path fill-rule="evenodd" clip-rule="evenodd" d="M12 0C5.24002 0 0 4.95169 0 11.64C0 15.1384 1.43377 18.1615 3.76866 20.2495C3.96469 20.425 4.083 20.6707 4.09102 20.9338L4.15636 23.0683C4.17722 23.7492 4.88053 24.1922 5.50359 23.9172L7.88541 22.8657C8.08725 22.7767 8.31364 22.7601 8.52633 22.8187C9.62086 23.1196 10.7857 23.28 12 23.28C18.7599 23.28 24 18.3283 24 11.64C24 4.95164 18.7599 0 12 0Z" fill="url(#paint0_radial_438_7681)"/>
<path fill-rule="evenodd" clip-rule="evenodd" d="M4.79382 15.0441L8.31882 9.45159C8.87954 8.56191 10.0802 8.34038 10.9216 8.97136L13.7251 11.0741C13.8503 11.168 14.0027 11.2185 14.1592 11.2181C14.3157 11.2177 14.4678 11.1662 14.5925 11.0716L18.3789 8.19797C18.8843 7.81444 19.544 8.41927 19.2058 8.95598L15.6808 14.5485C15.12 15.4381 13.9193 15.6597 13.078 15.0287L10.2744 12.9259C10.1492 12.832 9.99678 12.7815 9.84029 12.782C9.6838 12.7824 9.53172 12.8338 9.40707 12.9285L5.62065 15.8021C5.11524 16.1856 4.45552 15.5808 4.79382 15.0441Z" fill="white"/>
<defs>
<radialGradient id="paint0_radial_438_7681" cx="0" cy="0" r="1" gradientUnits="userSpaceOnUse" gradientTransform="translate(4.62188 23.7086) scale(26.1375 26.1375)">
<stop stop-color="#0099FF"/>
<stop offset="0.61" stop-color="#A033FF"/>
<stop offset="0.935" stop-color="#FF5280"/>
<stop offset="1" stop-color="#FF7061"/>
</radialGradient>
</defs>
</svg>
