<svg width="100" height="100" viewBox="0 0 100 100" fill="none" xmlns="http://www.w3.org/2000/svg">
<g clip-path="url(#clip0_194_3098)">
<path d="M81.1657 100H18.8343C15.2627 100 12.2686 97.3008 11.8998 93.7482L4.31372 20.6927H95.6863L88.1002 93.7482C87.7314 97.3008 84.7373 100 81.1657 100Z" fill="url(#paint0_linear_194_3098)"/>
<path d="M95.6863 20.6921L93.3824 42.8843L88.1 93.749C87.7314 97.3 84.7373 100 81.1647 100H50V20.6921H95.6863Z" fill="url(#paint1_linear_194_3098)"/>
<path d="M95.6863 20.6921L88.1 93.749C87.7314 97.3 84.7373 100 81.1647 100H63.7294L6.61764 42.8882L4.31372 20.6921H95.6863Z" fill="url(#paint2_linear_194_3098)"/>
<path d="M9.8501 74.0078L11.8999 93.7482C12.2689 97.3008 15.2628 100 18.8344 100H81.1656C84.7372 100 87.7313 97.3008 88.1001 93.7482L90.1499 74.0078H9.8501Z" fill="url(#paint3_linear_194_3098)"/>
<path d="M50.0001 17.5645C50.0001 25.6408 13.7256 25.6408 13.7256 17.5645C13.7256 9.48824 19.9638 0 27.6591 0C35.3544 0 50.0001 9.48824 50.0001 17.5645Z" fill="url(#paint4_linear_194_3098)"/>
<path d="M38.7511 19.0226C38.7511 12.8904 27.6309 5.68628 21.7881 5.68628C19.8607 5.68628 18.0554 6.47334 16.4991 7.74412C14.7573 10.7624 13.7256 14.2802 13.7256 17.5645C13.7256 21.0531 20.4942 23.0345 28.1836 23.5092C33.8505 23.1047 38.7511 21.6092 38.7511 19.0226Z" fill="url(#paint5_linear_194_3098)"/>
<path d="M50 17.5645C50 25.6408 86.2745 25.6408 86.2745 17.5645C86.2745 9.48824 80.0363 0 72.341 0C64.6457 0 50 9.48824 50 17.5645Z" fill="url(#paint6_linear_194_3098)"/>
<path d="M61.249 19.0226C61.249 12.8904 72.3692 5.68628 78.212 5.68628C80.1394 5.68628 81.9447 6.47334 83.501 7.74412C85.2428 10.7624 86.2745 14.2802 86.2745 17.5645C86.2745 21.0531 79.5059 23.0345 71.8165 23.5092C66.1496 23.1047 61.249 21.6092 61.249 19.0226Z" fill="url(#paint7_linear_194_3098)"/>
<path d="M93.1537 42.8877H6.84628C3.06529 42.8877 0 39.8226 0 36.0414V23.742C0 19.9608 3.06529 16.8955 6.84628 16.8955H93.1535C96.9347 16.8955 99.9998 19.9608 99.9998 23.7418V36.0412C100 39.8226 96.9347 42.8877 93.1537 42.8877Z" fill="url(#paint8_linear_194_3098)"/>
<path d="M100 23.7411V36.0411C100 39.745 97.0588 42.7627 93.3824 42.8842C93.3059 42.8862 93.2294 42.8882 93.1529 42.8882H50V16.896H93.1529C96.9353 16.896 100 19.9607 100 23.7411Z" fill="url(#paint9_linear_194_3098)"/>
<path d="M0 29.8916V36.0414C0 39.8226 3.06529 42.8877 6.84628 42.8877H93.1535C96.9347 42.8877 99.9998 39.8224 99.9998 36.0414V29.8916H0Z" fill="url(#paint10_linear_194_3098)"/>
<path d="M56.5576 43.6824H43.4427C42.1797 43.6824 41.156 42.6587 41.156 41.3957V18.3875C41.156 17.1246 42.1797 16.1008 43.4427 16.1008H56.5576C57.8205 16.1008 58.8442 17.1246 58.8442 18.3875V41.3957C58.8442 42.6587 57.8205 43.6824 56.5576 43.6824Z" fill="url(#paint11_linear_194_3098)"/>
<path d="M68.1373 36.3896L31.8628 63.0869L68.7759 100H81.1657C84.7373 100 87.7314 97.3008 88.1003 93.7483L91.6181 59.8704L68.1373 36.3896Z" fill="url(#paint12_linear_194_3098)"/>
<path d="M56.5576 99.9999H43.4427C42.1797 99.9999 41.156 98.9762 41.156 97.7133V39.3078C41.156 38.0448 42.1797 37.0211 43.4427 37.0211H56.5576C57.8205 37.0211 58.8442 38.0448 58.8442 39.3078V97.7131C58.8442 98.9762 57.8205 99.9999 56.5576 99.9999Z" fill="url(#paint13_linear_194_3098)"/>
<path d="M56.5576 37.0211H43.4427C42.1797 37.0211 41.156 38.0448 41.156 39.3078V77.4264L58.8442 95.1146V39.3078C58.8442 38.045 57.8205 37.0211 56.5576 37.0211Z" fill="url(#paint14_linear_194_3098)"/>
<path d="M58.8433 39.3079V90.0667L41.157 72.3804V39.3079C41.157 38.0451 42.1805 37.0216 43.4433 37.0216H56.557C57.8197 37.0216 58.8433 38.0451 58.8433 39.3079Z" fill="url(#paint15_linear_194_3098)"/>
<path d="M71.6127 52.0836L69.5661 54.1665C68.7621 54.9847 68.389 56.133 68.5586 57.2675L68.9902 60.1545C69.2849 62.1265 67.9443 63.9708 65.9774 64.2987L63.0996 64.7785C61.9661 64.9675 60.9874 65.6789 60.4578 66.6987L59.1159 69.2832C58.1961 71.0547 56.0245 71.7602 54.239 70.8675L51.6339 69.5649C50.6053 69.0506 49.3945 69.0506 48.3657 69.5649L45.7606 70.8675C43.9751 71.7602 41.8037 71.0549 40.8839 69.2832L39.542 66.6987C39.0123 65.6787 38.0337 64.9675 36.9002 64.7785L34.0225 64.2987C32.0557 63.9708 30.7151 62.1265 31.0098 60.1545L31.4414 57.2677C31.611 56.1332 31.2378 54.9849 30.4339 54.1667L28.3872 52.0838C26.9904 50.6622 26.9904 48.3836 28.3872 46.962L30.4339 44.8791C31.2378 44.0608 31.611 42.9126 31.4414 41.7781L31.0098 38.891C30.7151 36.9191 32.0557 35.0747 34.0225 34.7469L36.9004 34.2671C38.0339 34.0781 39.0125 33.3667 39.5421 32.3469L40.8841 29.7626C41.8039 27.991 43.9755 27.2855 45.761 28.1783L48.3661 29.4808C49.3947 29.9951 50.6055 29.9951 51.6343 29.4808L54.2394 28.1783C56.0249 27.2855 58.1963 27.9908 59.1163 29.7626L60.4582 32.3471C60.9878 33.3671 61.9665 34.0783 63.1 34.2673L65.9778 34.7471C67.9447 35.0749 69.2853 36.9193 68.9906 38.8912L68.559 41.7781C68.3894 42.9126 68.7625 44.0608 69.5665 44.8791L71.6131 46.962C73.0096 48.3834 73.0096 50.662 71.6127 52.0836Z" fill="url(#paint16_linear_194_3098)"/>
<path d="M50 65.726C58.9488 65.726 66.2033 58.4715 66.2033 49.5227C66.2033 40.5738 58.9488 33.3193 50 33.3193C41.0511 33.3193 33.7966 40.5738 33.7966 49.5227C33.7966 58.4715 41.0511 65.726 50 65.726Z" fill="url(#paint17_linear_194_3098)"/>
<path d="M49.9999 63.3439C57.6331 63.3439 63.8211 57.1559 63.8211 49.5227C63.8211 41.8895 57.6331 35.7015 49.9999 35.7015C42.3667 35.7015 36.1787 41.8895 36.1787 49.5227C36.1787 57.1559 42.3667 63.3439 49.9999 63.3439Z" fill="url(#paint18_linear_194_3098)"/>
<path d="M30.4339 54.1665C31.2378 54.9847 31.611 56.133 31.4414 57.2675L31.0098 60.1543C30.7151 62.1263 32.0557 63.9706 34.0225 64.2985L36.9002 64.7783C38.0337 64.9673 39.0123 65.6787 39.542 66.6985L40.8839 69.283C41.8037 71.0545 43.9753 71.76 45.7606 70.8671L48.3657 69.5645C49.3943 69.0502 50.6051 69.0502 51.6339 69.5645L54.239 70.8671C56.0245 71.7598 58.1959 71.0545 59.1159 69.2828L60.4578 66.6985C60.9874 65.6785 61.9661 64.9673 63.0996 64.7783L65.9774 64.2985C67.9443 63.9706 69.2849 62.1263 68.9902 60.1543L68.5586 57.2673C68.389 56.1328 68.7621 54.9845 69.5661 54.1663L71.6127 52.0834C72.3112 51.3726 72.6604 50.4475 72.6604 49.5226H27.3396C27.3396 50.4477 27.6888 51.3726 28.3872 52.0834L30.4339 54.1665Z" fill="url(#paint19_linear_194_3098)"/>
<path d="M63.0996 64.7781L65.9775 64.2983C67.9443 63.9704 69.2849 62.1261 68.9902 60.1541L68.5586 57.2671C68.389 56.1326 68.7622 54.9843 69.5661 54.1661L70.0545 53.6691C70.1051 53.3702 70.2051 53.0781 70.358 52.8071L56.5141 38.9632C56.2316 38.4453 55.6202 38.1306 55.0526 38.1306C54.5578 38.1306 54.1178 38.3506 53.898 38.8179L44.249 58.6381C44.1665 58.803 44.1116 58.9955 44.1116 59.1604C44.1116 59.6357 44.4014 60.1502 44.889 60.4226L55.7157 71.2492C57.0916 71.3079 58.4408 70.583 59.1159 69.2828L60.4578 66.6985C60.9875 65.6785 61.9661 64.9671 63.0996 64.7781Z" fill="url(#paint20_linear_194_3098)"/>
<path d="M68.8049 61.9575L47.4841 40.637C46.7538 39.6554 45.4908 39.2579 44.029 39.2579C41.6924 39.2579 39.9055 40.2475 39.9055 42.9689V46.8724C39.9055 48.2766 40.382 49.2187 41.1636 49.8028L59.6381 68.2773L60.4579 66.6983C60.9875 65.6783 61.9661 64.9671 63.0996 64.7781L65.9775 64.2983C67.3167 64.0752 68.3649 63.1485 68.8049 61.9575Z" fill="url(#paint21_linear_194_3098)"/>
<path d="M56.6235 48.0818C54.2871 48.0818 52.5 49.0714 52.5 51.793V55.6965C52.5 57.1006 52.9765 58.0428 53.7578 58.6267L61.0259 65.8947C61.5692 65.3106 62.2949 64.9122 63.0996 64.7781L65.9774 64.2983C67.9443 63.9704 69.2849 62.1261 68.9902 60.1541L68.6771 58.059L60.0786 49.4608C59.3482 48.4792 58.0853 48.0818 56.6235 48.0818Z" fill="url(#paint22_linear_194_3098)"/>
<path d="M39.7942 46.7611V42.8576C39.7942 40.136 41.5811 39.1464 43.9177 39.1464C46.2269 39.1464 48.0412 40.136 48.0412 42.8576V46.7611C48.0412 49.4827 46.2267 50.4723 43.9177 50.4723C41.5811 50.4723 39.7942 49.4827 39.7942 46.7611ZM45.2922 42.8576C45.2922 41.9505 44.7699 41.538 43.9177 41.538C43.0656 41.538 42.5709 41.9503 42.5709 42.8576V46.7611C42.5709 47.6682 43.0656 48.0807 43.9177 48.0807C44.7701 48.0807 45.2922 47.6684 45.2922 46.7611V42.8576ZM56.563 39.4762C56.563 39.6411 56.5356 39.8337 56.453 39.9986L46.7765 59.8188C46.584 60.2311 46.0618 60.506 45.5395 60.506C44.6048 60.506 44.0001 59.7364 44.0001 59.049C44.0001 58.8841 44.0552 58.6915 44.1375 58.5266L53.7863 38.7064C54.0063 38.2392 54.4462 38.0192 54.9409 38.0192C55.7107 38.0194 56.563 38.5966 56.563 39.4762ZM52.412 55.6129V51.7094C52.412 48.9878 54.1989 47.9982 56.5356 47.9982C58.8448 47.9982 60.6591 48.9878 60.6591 51.7094V55.6129C60.6591 58.3345 58.8448 59.3241 56.5356 59.3241C54.1989 59.3239 52.412 58.3343 52.412 55.6129ZM57.9099 51.7094C57.9099 50.8023 57.3875 50.3898 56.5354 50.3898C55.6832 50.3898 55.1883 50.8021 55.1883 51.7094V55.6129C55.1883 56.5201 55.6832 56.9323 56.5354 56.9323C57.3875 56.9323 57.9099 56.52 57.9099 55.6129V51.7094Z" fill="url(#paint23_linear_194_3098)"/>
</g>
<defs>
<linearGradient id="paint0_linear_194_3098" x1="29.6957" y1="34.2259" x2="88.7704" y2="93.3004" gradientUnits="userSpaceOnUse">
<stop stop-color="#FEE45A"/>
<stop offset="1" stop-color="#FEA613"/>
</linearGradient>
<linearGradient id="paint1_linear_194_3098" x1="74.5098" y1="60.3461" x2="55.8731" y2="60.3461" gradientUnits="userSpaceOnUse">
<stop stop-color="#FEA613" stop-opacity="0"/>
<stop offset="1" stop-color="#E94444"/>
</linearGradient>
<linearGradient id="paint2_linear_194_3098" x1="50" y1="73.5294" x2="50" y2="28.489" gradientUnits="userSpaceOnUse">
<stop stop-color="#FEA613" stop-opacity="0"/>
<stop offset="1" stop-color="#E94444"/>
</linearGradient>
<linearGradient id="paint3_linear_194_3098" x1="50.0001" y1="84.6368" x2="50.0001" y2="101.697" gradientUnits="userSpaceOnUse">
<stop stop-color="#FEA613" stop-opacity="0"/>
<stop offset="1" stop-color="#E94444"/>
</linearGradient>
<linearGradient id="paint4_linear_194_3098" x1="23.8777" y1="2.12177" x2="36.5632" y2="25.5706" gradientUnits="userSpaceOnUse">
<stop stop-color="#FEDBBD"/>
<stop offset="1" stop-color="#FD3581"/>
</linearGradient>
<linearGradient id="paint5_linear_194_3098" x1="22.786" y1="18.3269" x2="35.9993" y2="6.1202" gradientUnits="userSpaceOnUse">
<stop stop-color="#FE646F" stop-opacity="0"/>
<stop offset="0.2966" stop-color="#FC616A" stop-opacity="0.297"/>
<stop offset="0.6214" stop-color="#F5575D" stop-opacity="0.621"/>
<stop offset="0.9585" stop-color="#EB4747" stop-opacity="0.959"/>
<stop offset="1" stop-color="#E94444"/>
</linearGradient>
<linearGradient id="paint6_linear_194_3098" x1="76.1224" y1="2.12176" x2="63.4369" y2="25.5706" gradientUnits="userSpaceOnUse">
<stop stop-color="#FEDBBD"/>
<stop offset="1" stop-color="#FD3581"/>
</linearGradient>
<linearGradient id="paint7_linear_194_3098" x1="77.2141" y1="18.3269" x2="64.0008" y2="6.1202" gradientUnits="userSpaceOnUse">
<stop stop-color="#FE646F" stop-opacity="0"/>
<stop offset="0.2966" stop-color="#FC616A" stop-opacity="0.297"/>
<stop offset="0.6214" stop-color="#F5575D" stop-opacity="0.621"/>
<stop offset="0.9585" stop-color="#EB4747" stop-opacity="0.959"/>
<stop offset="1" stop-color="#E94444"/>
</linearGradient>
<linearGradient id="paint8_linear_194_3098" x1="40.5239" y1="6.9908" x2="59.3473" y2="52.481" gradientUnits="userSpaceOnUse">
<stop stop-color="#FEE45A"/>
<stop offset="1" stop-color="#FEA613"/>
</linearGradient>
<linearGradient id="paint9_linear_194_3098" x1="72.3529" y1="29.8921" x2="53.3324" y2="29.8921" gradientUnits="userSpaceOnUse">
<stop stop-color="#FEA613" stop-opacity="0"/>
<stop offset="1" stop-color="#E94444"/>
</linearGradient>
<linearGradient id="paint10_linear_194_3098" x1="50" y1="33.3334" x2="50" y2="48.4632" gradientUnits="userSpaceOnUse">
<stop stop-color="#FEA613" stop-opacity="0"/>
<stop offset="1" stop-color="#E94444"/>
</linearGradient>
<linearGradient id="paint11_linear_194_3098" x1="44.5629" y1="24.4544" x2="60.3823" y2="40.274" gradientUnits="userSpaceOnUse">
<stop stop-color="#FEDBBD"/>
<stop offset="1" stop-color="#FD3581"/>
</linearGradient>
<linearGradient id="paint12_linear_194_3098" x1="78.8238" y1="78.562" x2="48.6063" y2="48.3445" gradientUnits="userSpaceOnUse">
<stop stop-color="#FEA613" stop-opacity="0"/>
<stop offset="1" stop-color="#E94444"/>
</linearGradient>
<linearGradient id="paint13_linear_194_3098" x1="15.4376" y1="47.0858" x2="65.7289" y2="78.2607" gradientUnits="userSpaceOnUse">
<stop stop-color="#FEDBBD"/>
<stop offset="1" stop-color="#FD3581"/>
</linearGradient>
<linearGradient id="paint14_linear_194_3098" x1="50.0001" y1="81.5686" x2="50.0001" y2="31.9333" gradientUnits="userSpaceOnUse">
<stop stop-color="#FE646F" stop-opacity="0"/>
<stop offset="0.2966" stop-color="#FC616A" stop-opacity="0.297"/>
<stop offset="0.6214" stop-color="#F5575D" stop-opacity="0.621"/>
<stop offset="0.9585" stop-color="#EB4747" stop-opacity="0.959"/>
<stop offset="1" stop-color="#E94444"/>
</linearGradient>
<linearGradient id="paint15_linear_194_3098" x1="60.8868" y1="88.602" x2="53.3378" y2="65.7589" gradientUnits="userSpaceOnUse">
<stop stop-color="#FE646F" stop-opacity="0"/>
<stop offset="0.2966" stop-color="#FC616A" stop-opacity="0.297"/>
<stop offset="0.6214" stop-color="#F5575D" stop-opacity="0.621"/>
<stop offset="0.9585" stop-color="#EB4747" stop-opacity="0.959"/>
<stop offset="1" stop-color="#E94444"/>
</linearGradient>
<linearGradient id="paint16_linear_194_3098" x1="36.2759" y1="35.7985" x2="71.1125" y2="70.6351" gradientUnits="userSpaceOnUse">
<stop stop-color="#8AC9FE"/>
<stop offset="1" stop-color="#814AA0"/>
</linearGradient>
<linearGradient id="paint17_linear_194_3098" x1="65.3404" y1="64.8631" x2="28.5258" y2="28.0486" gradientUnits="userSpaceOnUse">
<stop stop-color="#8AC9FE"/>
<stop offset="1" stop-color="#814AA0"/>
</linearGradient>
<linearGradient id="paint18_linear_194_3098" x1="40.2628" y1="39.7855" x2="59.3283" y2="58.8511" gradientUnits="userSpaceOnUse">
<stop stop-color="#8AC9FE"/>
<stop offset="1" stop-color="#814AA0"/>
</linearGradient>
<linearGradient id="paint19_linear_194_3098" x1="50" y1="54.9843" x2="50" y2="76.1645" gradientUnits="userSpaceOnUse">
<stop stop-color="#5B3374" stop-opacity="0"/>
<stop offset="1" stop-color="#5B3374"/>
</linearGradient>
<linearGradient id="paint20_linear_194_3098" x1="60.0163" y1="57.1777" x2="45.5263" y2="49.004" gradientUnits="userSpaceOnUse">
<stop stop-color="#5B3374" stop-opacity="0"/>
<stop offset="1" stop-color="#5B3374"/>
</linearGradient>
<linearGradient id="paint21_linear_194_3098" x1="50.6069" y1="52.8413" x2="38.0238" y2="46.7505" gradientUnits="userSpaceOnUse">
<stop stop-color="#5B3374" stop-opacity="0"/>
<stop offset="1" stop-color="#5B3374"/>
</linearGradient>
<linearGradient id="paint22_linear_194_3098" x1="66.2576" y1="60.893" x2="50.9953" y2="51.9334" gradientUnits="userSpaceOnUse">
<stop stop-color="#5B3374" stop-opacity="0"/>
<stop offset="1" stop-color="#5B3374"/>
</linearGradient>
<linearGradient id="paint23_linear_194_3098" x1="39.7942" y1="49.2627" x2="48.0412" y2="49.2627" gradientUnits="userSpaceOnUse">
<stop stop-color="#EAF6FF"/>
<stop offset="1" stop-color="#B3DAFE"/>
</linearGradient>
<clipPath id="clip0_194_3098">
<rect width="100" height="100" fill="white"/>
</clipPath>
</defs>
</svg>
