<svg width="28" height="28" viewBox="0 0 28 28" fill="none" xmlns="http://www.w3.org/2000/svg">
<rect width="28" height="28" rx="8" fill="white" fillOpacity="0.08"/>
<rect x="0.5" y="0.5" width="27" height="27" rx="7.5" stroke="white" stroke-opacity="0.08"/>
<path d="M17.8153 8C16.3092 8 14.9906 8.64765 14.1686 9.74239C13.3466 8.64765 12.028 8 10.5219 8C9.32303 8.00135 8.17365 8.4782 7.32593 9.32593C6.4782 10.1737 6.00135 11.323 6 12.5219C6 17.6273 13.5698 21.7597 13.8922 21.9304C13.9771 21.9761 14.0721 22 14.1686 22C14.2651 22 14.36 21.9761 14.445 21.9304C14.7674 21.7597 22.3372 17.6273 22.3372 12.5219C22.3358 11.323 21.859 10.1737 21.0113 9.32593C20.1635 8.4782 19.0142 8.00135 17.8153 8ZM14.1686 20.7488C12.8368 19.9728 7.16694 16.4377 7.16694 12.5219C7.1681 11.6325 7.52194 10.7798 8.15087 10.1509C8.77979 9.52194 9.63246 9.1681 10.5219 9.16694C11.9405 9.16694 13.1315 9.92254 13.6289 11.1362C13.6728 11.2432 13.7476 11.3347 13.8437 11.3991C13.9398 11.4635 14.0529 11.4979 14.1686 11.4979C14.2843 11.4979 14.3974 11.4635 14.4935 11.3991C14.5896 11.3347 14.6643 11.2432 14.7083 11.1362C15.2057 9.92035 16.3967 9.16694 17.8153 9.16694C18.7047 9.1681 19.5574 9.52194 20.1863 10.1509C20.8152 10.7798 21.1691 11.6325 21.1702 12.5219C21.1702 16.4319 15.4989 19.9721 14.1686 20.7488Z" fill="white"/>
</svg>
