<svg width="131" height="28" viewBox="0 0 131 28" fill="none" xmlns="http://www.w3.org/2000/svg">
<path d="M10.0465 8.60252V23.1141H5.73359V8.60252H0V5H15.8054V8.60252H10.0465Z" fill="#B6020B"/>
<path d="M33.8662 23.1141H29.5533V15.7061H22.1199V23.1141H17.8071V5H22.1199V12.1797H29.5533V5H33.8662V23.1141Z" fill="#B6020B"/>
<path d="M49.7265 12.205V15.4524H40.9993V19.6638H50.1832V23.1141H36.661V5H50.1832V8.34882H40.9993V12.205H49.7265Z" fill="#B6020B"/>
<path d="M77.3533 23.1141H73.2941V10.074H73.1926L69.1081 23.1141H65.9876L61.9031 10.074H61.8016V23.1141H57.8439V5H64.1863L67.5605 16.6955H67.662L71.0362 5H77.3533V23.1141Z" fill="#B6020B"/>
<path d="M93.2071 12.205V15.4524H84.4799V19.6638H93.6638V23.1141H80.1416V5H93.6638V8.34882H84.4799V12.205H93.2071Z" fill="#B6020B"/>
<path d="M107.363 23.1141L100.057 10.7336H99.9555V23.1141H95.9978V5H100.92L108.099 17.1522H108.201V5H112.158V23.1141H107.363Z" fill="#B6020B"/>
<path d="M130.858 16.4418C130.858 17.9978 130.511 19.3086 129.818 20.3741C129.141 21.4228 128.202 22.2092 127.002 22.7335C125.801 23.2578 124.431 23.52 122.892 23.52C121.353 23.52 119.983 23.2578 118.782 22.7335C117.598 22.2092 116.659 21.4228 115.966 20.3741C115.289 19.3086 114.951 17.9978 114.951 16.4418V5H119.264V16.0359C119.264 18.7082 120.473 20.0443 122.892 20.0443C125.327 20.0443 126.545 18.7082 126.545 16.0359V5H130.858V16.4418Z" fill="#B6020B"/>
</svg>
