<svg width="24" height="24" viewBox="0 0 24 24" fill="none" xmlns="http://www.w3.org/2000/svg">
<path fill-rule="evenodd" clip-rule="evenodd" d="M8.14297 6.85714C8.14297 5.83416 8.54935 4.85308 9.2727 4.12973C9.99606 3.40638 10.9771 3 12.0001 3C13.0231 3 14.0042 3.40638 14.7275 4.12973C15.4509 4.85308 15.8573 5.83416 15.8573 6.85714C15.8573 7.88012 15.4509 8.8612 14.7275 9.58455C14.0042 10.3079 13.0231 10.7143 12.0001 10.7143C10.9771 10.7143 9.99606 10.3079 9.2727 9.58455C8.54935 8.8612 8.14297 7.88012 8.14297 6.85714ZM4.92955 18.9471C4.95845 17.091 5.71609 15.3206 7.03894 14.0182C8.36178 12.7158 10.1437 11.9858 12.0001 11.9858C13.8565 11.9858 15.6384 12.7158 16.9613 14.0182C18.2841 15.3206 19.0418 17.091 19.0707 18.9471C19.0729 19.0721 19.0387 19.195 18.9721 19.3008C18.9056 19.4066 18.8097 19.4907 18.6961 19.5428C16.5954 20.506 14.3111 21.0031 12.0001 21C9.61211 21 7.34326 20.4788 5.30412 19.5428C5.19053 19.4907 5.09461 19.4066 5.02808 19.3008C4.96156 19.195 4.92732 19.0721 4.92955 18.9471Z" fill="#B6020B"/>
</svg>
